<svg width="197.1" height="169.1" version="1.1" viewBox="0 0 197.1 169.1" xmlns="http://www.w3.org/2000/svg">
	<path d="m2.552 8.063c-2.962 6.811-3.432 20.61-0.9528 27.95 11.27 33.37 26.83 52.34 66.45 80.98 13.49 9.755 32.98 19.98 53.16 27.88 5.458 2.138 10.02 4.36 10.15 4.937 0.1242 0.5772-4.036 1.699-9.245 2.494-25.25 3.851-32.06 5.581-34.04 8.65-3.843 5.95-1.447 7.966 9.643 8.115 20.25 0.271 76.21-6.416 87.45-10.45 6.637-2.382 12.88-10.48 11.83-15.36-0.3429-1.593-0.705-2.968-0.8048-3.055-0.0998-0.0869-13.49-14.39-29.75-31.79-23.52-25.16-30.04-31.54-31.89-31.17-1.275 0.252-4.218 2.76-6.539 5.573-5.901 7.153-5.161 11.44 4.936 28.57 4.536 7.698 7.948 14.46 7.582 15.03-1.504 2.329-25.26-8.69-49.47-22.94-38.16-22.47-64.49-50.57-76.26-81.36-2.32-6.073-4.203-11.76-4.186-12.64 0.01746-0.8797-0.7768-3.632-1.765-6.116-2.026-5.094-2.055-5.072-6.303 4.695z" fill="#fff" />
</svg>
