<svg width="389" height="389" version="1.1" xmlns="http://www.w3.org/2000/svg">
	<g fill="none" stroke="#45a640">
		<path d="m194.5 25.82c93.16 0 168.7 75.52 168.7 168.7s-75.52 168.7-168.7 168.7-168.7-75.52-168.7-168.7 75.52-168.7 168.7-168.7z" stroke-width="2"/>
		<path d="m194.5 0.5c107.1 0 194 86.86 194 194s-86.86 194-194 194-194-86.86-194-194 86.86-194 194-194z" stroke-width="1"/>
		<path d="m194.5 42.55c83.92 0 152 68.03 152 152s-68.03 152-152 152-152-68.03-152-152 68.03-152 152-152z" stroke-width="3"/>
	</g>
	<path d="m194.5 52.11c78.64 0 142.4 63.75 142.4 142.4s-63.75 142.4-142.4 142.4-142.4-63.75-142.4-142.4 63.75-142.4 142.4-142.4z" fill="#45a640"/>
</svg>
