<svg width="151" height="144.4" viewBox="0 0 151 144.4" xmlns="http://www.w3.org/2000/svg">
	<path d="m143.8 3.521c-1.948 0.1608-4.148 1.186-7.184 2.748-4.048 2.083-9.425 5.382-16.46 10.05-21.17 14.06-45.68 39-59.27 60.31-1.773 2.78-3.098 4.855-4.078 6.154-0.9691 1.237-1.024 1.552-1.713 0.5625-0.6291-1.09-1.459-2.984-2.564-5.527-2.372-5.456-4.774-10.12-7.023-13.69-2.249-3.564-4.184-6.044-6.42-7.209-6.698-3.489-17.01-0.9306-27.85 5.641-2.402 1.456-4.297 2.539-5.725 4.01s-2.199 3.512-1.988 5.828c0.422 4.632 3.645 10.85 9.898 23.72 5.928 12.2 12.57 26.28 14.69 31.14 1.095 2.508 2.266 4.981 3.283 6.969 0.5088 0.9939 0.9792 1.865 1.391 2.572 0.4115 0.7071 0.7062 1.206 1.133 1.68 1.006 1.118 2.378 1.613 3.936 1.947 1.558 0.3342 3.353 0.4537 5.277 0.4004 3.85-0.1066 10.64-0.5222 14.35-2.046l1.875-1.684 17.85-30.19c31.5-56.49 40.99-70.31 63.5-92.5 2.863-2.823 4.653-4.692 5.693-6.096 0.5204-0.7019 0.9325-1.223 1.051-2.186 0.0592-0.4813-0.0563-1.178-0.457-1.678-0.4007-0.4999-0.9125-0.7066-1.305-0.8027-0.6159-0.151-1.237-0.1923-1.887-0.1387z" fill="#46bd26" stroke="#fff" stroke-width="7"/>
</svg>
