<svg width="196" height="183.3" viewBox="0 0 196 183.3" xmlns="http://www.w3.org/2000/svg" preserveAspectRatio="none">
	<path d="m188.3 3.506c-1.384 0.05982-3.012 0.4083-5.023 1.006-4.024 1.195-9.546 3.418-16.69 6.676-20.74 9.463-43.27 25-57.85 39.92-1.775 1.817-3.591 3.474-5.039 4.645-0.724 0.5852-1.361 1.049-1.814 1.334-0.105 0.06608-0.1652 0.07393-0.2598 0.1113-0.1093-0.06836-0.183-0.1071-0.332-0.2129-0.5449-0.3868-1.306-1.001-2.18-1.77-1.747-1.537-3.966-3.7-6.186-6.072-8.728-9.33-16.27-14.46-22.96-14.46-1.702 0-3.819 0.5946-6.564 1.477-2.745 0.882-5.971 2.088-9.225 3.426-6.507 2.677-12.98 5.753-16.12 8.146-1.924 1.468-3.451 2.777-4.371 4.484s-0.9603 3.812-0.123 5.85c1.675 4.076 6.183 8.769 14.55 17.2 8.263 8.324 13.17 13.66 15.54 17.12 1.183 1.728 1.693 2.964 1.803 3.723 0.1094 0.759-0.0061 1.087-0.4746 1.686-0.1092 0.1396-1.022 1.195-2.344 2.676-1.322 1.481-3.123 3.482-5.273 5.857-4.301 4.752-9.997 11-16.04 17.6-18.3 19.96-28.53 31.49-33.64 38.96-2.557 3.731-3.899 6.462-4.162 8.971-0.2631 2.509 0.8485 4.628 2.418 6.197 1.06 1.06 2.689 1.727 4.875 1.754 2.186 0.027 5.194-0.3535 10.19-1.092 8.204-1.213 15.67-2.977 21.77-5.084 6.098-2.107 10.82-4.493 13.66-7.312 1.343-1.333 3.499-4.088 6.191-7.723 2.692-3.634 5.83-8.072 8.779-12.46 6.211-9.235 10.28-15.07 13.01-18.52 1.363-1.724 2.399-2.848 3.113-3.465 0.5128-0.443 0.569-0.4109 0.6621-0.4492 0.1697 0.1482 0.3251 0.279 0.5781 0.5293 0.7355 0.7274 1.758 1.836 2.955 3.211 2.394 2.749 5.509 6.575 8.736 10.78 3.263 4.253 6.498 8.261 9.098 11.31 1.3 1.526 2.439 2.81 3.359 3.781 0.9205 0.9711 1.356 1.543 2.305 2.051 3.319 1.776 7.314 2.138 12.11 1.162 4.795-0.9756 10.48-3.246 17.61-6.863 4.666-2.367 8.201-4.15 10.76-5.979 2.561-1.828 4.293-3.937 4.496-6.588s-0.9583-5.334-3.016-8.748c-2.057-3.414-5.112-7.62-9.168-13.2-6.704-9.227-15.1-20.22-18.81-24.61-1.762-2.084-3.371-4.259-4.512-6.029-0.5704-0.8854-1.025-1.673-1.312-2.264-0.2878-0.5906-0.3418-1.103-0.3418-0.791 0 0.2732-0.0134 0.06638 0.1387-0.25 0.1521-0.3164 0.4227-0.7827 0.793-1.342 0.7405-1.118 1.88-2.622 3.344-4.404 2.926-3.565 7.148-8.264 12.21-13.61 10.12-10.68 23.6-23.95 36.95-36.12 5.772-5.262 9.957-9.445 12.61-12.66 1.326-1.606 2.274-2.955 2.859-4.201 0.5853-1.246 0.9541-2.688 0.082-3.965-0.872-1.277-2.323-1.466-3.707-1.406zm-179.9 172.1c-2.977 2.356-1.488 1.178 0 0z" fill="#ec2e2e" stroke="#fff" stroke-width="7" />
</svg>
