<svg width="87.75" height="107.4" version="1.1" viewBox="0 0 87.75 107.4" xmlns="http://www.w3.org/2000/svg">
	<path d="m43.71 0-1.434 0.5898-39.93 16.48-2.348 0.9688v2.516 41.62c1.184e-15 9.247 5.051 18.02 12.23 25.42 8.712 8.989 20.69 16.06 30.26 19.35l1.227 0.4219 1.225-0.4219c8.125-2.792 17.99-8.338 26.11-15.46 8.469-7.433 14.17-15.46 16.58-25.91h-5.16-55.02c-0.7573 0-1.449-0.3144-1.953-0.8184h-0.01367c-0.4947-0.4947-0.8008-1.185-0.8008-1.953v-26.41c0-0.756 0.3124-1.448 0.8164-1.953 0.5053-0.504 1.195-0.8164 1.951-0.8164h49.98c0.764 0 1.456 0.3086 1.959 0.8086l-0.00586 0.007813c0.504 0.504 0.8164 1.196 0.8164 1.953v3.404h-49.35v7.559h53.13 3.777v-3.779-7.184c0-2.844-1.161-5.428-3.031-7.297h-0.01562c-1.871-1.871-4.449-3.033-7.281-3.033h-49.98c-2.843 0-5.424 1.164-7.295 3.033-1.871 1.871-3.033 4.456-3.033 7.297v26.41c0 2.831 1.163 5.412 3.039 7.291l-0.007813 0.007813c1.871 1.871 4.453 3.031 7.297 3.031h54.49l-6.303 1.859c-2.445 3.852-5.78 7.512-9.547 10.82-6.943 6.093-15.29 10.91-22.37 13.55-8.412-3.129-18.59-9.291-26.08-17.02-5.912-6.099-10.07-13.11-10.07-20.17v-39.11l36.15-14.92 24.14 9.961v-8.15l-22.71-9.371-1.432-0.5898zm-8.428 52.04c-2.449 0-4.438 1.987-4.438 4.438 0 2.449 1.988 4.436 4.438 4.436 1.589 0 2.972-0.8439 3.756-2.1 0.7838 1.256 2.167 2.1 3.756 2.1 2.449 0 4.438-1.986 4.438-4.436 0-2.451-1.988-4.438-4.438-4.438-1.589 0-2.972 0.8414-3.756 2.098-0.784-1.256-2.167-2.098-3.756-2.098z" fill="#ffd756" />
</svg>
