<svg width="298" height="298" xmlns="http://www.w3.org/2000/svg">
	<g fill="none" stroke="#db3333" stroke-opacity=".5">
		<path d="m149 0.5c82.01 0 148.5 66.49 148.5 148.5s-66.49 148.5-148.5 148.5-148.5-66.49-148.5-148.5 66.49-148.5 148.5-148.5z"/>
		<path d="m149 35c62.96 0 114 51.04 114 114 0 62.96-51.04 114-114 114s-114-51.04-114-114c0-62.96 51.04-114 114-114z" stroke-width="2"/>
		<path d="m149 60c49.15 0 89 39.85 89 89s-39.85 89-89 89-89-39.85-89-89 39.85-89 89-89z" stroke-width="3"/>
		<path d="m149 73c41.97 0 76 34.03 76 76s-34.03 76-76 76-76-34.03-76-76 34.03-76 76-76z" stroke-width="5"/>
	</g>
</svg>
