<svg width="32.69" height="32.69" version="1.1" xmlns="http://www.w3.org/2000/svg">
	<path d="m16.34 0c-9.02 0-16.34 7.324-16.34 16.34s7.324 16.34 16.34 16.34 16.34-7.324 16.34-16.34-7.324-16.34-16.34-16.34zm0 1c8.48 0 15.34 6.864 15.34 15.34s-6.864 15.34-15.34 15.34-15.34-6.864-15.34-15.34 6.864-15.34 15.34-15.34zm0 2.078c-7.314 0-13.27 5.951-13.27 13.27s5.951 13.27 13.27 13.27 13.27-5.951 13.27-13.27-5.951-13.27-13.27-13.27zm0 2c6.234 0 11.27 5.032 11.27 11.27s-5.032 11.27-11.27 11.27-11.27-5.032-11.27-11.27 5.032-11.27 11.27-11.27zm0 2.947c-4.594 0-8.318 3.724-8.318 8.318s3.724 8.318 8.318 8.318 8.318-3.724 8.318-8.318-3.724-8.318-8.318-8.318z" fill="#ed3c3c" />
</svg>
